0
SECTION
2
HEADER
9
$INSUNITS
70
4
9
$ACADVER
1
AC1014
9
$HANDSEED
5
FFFF
0
ENDSEC
0
SECTION
2
TABLES
0
TABLE
2
VPORT
5
8
100
AcDbSymbolTable
0
ENDTAB
0
TABLE
2
LTYPE
5
5
100
AcDbSymbolTable
0
LTYPE
5
14
100
AcDbSymbolTableRecord
100
AcDbLinetypeTableRecord
2
BYBLOCK
70
0
0
LTYPE
5
15
100
AcDbSymbolTableRecord
100
AcDbLinetypeTableRecord
2
BYLAYER
70
0
0
LTYPE
5
16
100
AcDbSymbolTableRecord
100
AcDbLinetypeTableRecord
2
DASHED
70
0
3
Dashed __ __ __ __ __ __ __ __ __ __ __ __ __ _
72
65
73
2
40
0.75
49
0.5
74
0
49
-0.25
74
0
0
ENDTAB
0
TABLE
2
LAYER
5
2
100
AcDbSymbolTable
70
2
0
LAYER
5
50
100
AcDbSymbolTableRecord
100
AcDbLayerTableRecord
2
0
70
0
62
7
6
CONTINUOUS
0
ENDTAB
0
TABLE
2
STYLE
5
3
100
AcDbSymbolTable
70
1
0
STYLE
5
11
100
AcDbSymbolTableRecord
100
AcDbTextStyleTableRecord
2
STANDARD
70
0
0
ENDTAB
0
TABLE
2
VIEW
5
6
100
AcDbSymbolTable
70
0
0
ENDTAB
0
TABLE
2
UCS
5
7
100
AcDbSymbolTable
70
0
0
ENDTAB
0
TABLE
2
APPID
5
9
100
AcDbSymbolTable
70
2
0
APPID
5
12
100
AcDbSymbolTableRecord
100
AcDbRegAppTableRecord
2
ACAD
70
0
0
ENDTAB
0
TABLE
2
DIMSTYLE
5
A
100
AcDbSymbolTable
70
1
0
ENDTAB
0
TABLE
2
BLOCK_RECORD
5
1
100
AcDbSymbolTable
70
1
0
BLOCK_RECORD
5
1F
100
AcDbSymbolTableRecord
100
AcDbBlockTableRecord
2
*MODEL_SPACE
0
BLOCK_RECORD
5
1B
100
AcDbSymbolTableRecord
100
AcDbBlockTableRecord
2
*PAPER_SPACE
0
ENDTAB
0
ENDSEC
0
SECTION
2
BLOCKS
0
BLOCK
5
20
100
AcDbEntity
100
AcDbBlockBegin
2
*MODEL_SPACE
0
ENDBLK
5
21
100
AcDbEntity
100
AcDbBlockEnd
0
BLOCK
5
1C
100
AcDbEntity
100
AcDbBlockBegin
2
*PAPER_SPACE
0
ENDBLK
5
1D
100
AcDbEntity
100
AcDbBlockEnd
0
ENDSEC
0
SECTION
2
ENTITIES
0
CIRCLE
5
100
100
AcDbEntity
8
0
100
AcDbCircle
10
-199.00000296533105
20
-18.000000268220905
30
0
40
1.4999999999999862
210
0
220
-0
230
1
0
CIRCLE
5
101
100
AcDbEntity
8
0
100
AcDbCircle
10
-98.533812436114033
20
-46.544494746664647
30
0
40
1.500000000000004
210
2.9582283945787943e-31
220
-1.3342441432780235e-46
230
1
0
CIRCLE
5
102
100
AcDbEntity
8
0
100
AcDbCircle
10
-111.53381243611398
20
-46.544494746664604
30
0
40
1.500000000000004
210
2.9582283945787943e-31
220
-1.3342441432780235e-46
230
1
0
CIRCLE
5
103
100
AcDbEntity
8
0
100
AcDbCircle
10
-35.200000000000919
20
30.700000000000106
30
0
40
1.4999999999999996
210
1.9721522630525295e-31
220
-8.8949609551868252e-47
230
1
0
CIRCLE
5
104
100
AcDbEntity
8
0
100
AcDbCircle
10
-65.700000000000898
20
46.700000000000088
30
0
40
1.500000000000004
210
2.9582283945787943e-31
220
-1.3342441432780237e-46
230
1
0
LWPOLYLINE
5
105
100
AcDbEntity
8
0
100
AcDbPolyline
90
4
70
1
43
0.0
10
0.25000004842882717
20
30.500000223517667
10
6.2500000484288272
20
30.50000022351767
10
6.2500000484288218
20
18.500000223517663
10
0.25000004842882229
20
18.500000223517659
0
LWPOLYLINE
5
106
100
AcDbEntity
8
0
100
AcDbPolyline
90
8
70
1
43
0.0
10
-12.899999711662495
20
-11.999999731778885
10
-17.899999711662495
20
-11.999999731778889
10
-17.899999711662485
20
12.000000178814149
10
-12.899999711662486
20
12.000000178814155
10
-12.900000069290357
20
13.50000000000022
10
19.099999930709647
20
13.500000000000256
10
19.099999930709636
20
-13.499999999999755
10
-12.900000069290368
20
-13.499999999999787
0
CIRCLE
5
107
100
AcDbEntity
8
0
100
AcDbCircle
10
-44.25000056624409
20
-20.499999999999815
30
0
40
1.500000000000004
210
0
220
-0
230
1
0
CIRCLE
5
108
100
AcDbEntity
8
0
100
AcDbCircle
10
-56.74987423343444
20
-20.499999999999829
30
0
40
1.500000000000004
210
0
220
-0
230
1
0
CIRCLE
5
109
100
AcDbEntity
8
0
100
AcDbCircle
10
-56.749874233434419
20
20.500000000000192
30
0
40
1.4999999999999951
210
5.2343424082445569e-47
220
-4.9303806576313238e-32
230
1
0
CIRCLE
5
110
100
AcDbEntity
8
0
100
AcDbCircle
10
-44.250000566244069
20
20.500000000000206
30
0
40
1.4999999999999951
210
5.2343424082445569e-47
220
-4.9303806576313238e-32
230
1
0
LWPOLYLINE
5
111
100
AcDbEntity
8
0
100
AcDbPolyline
90
4
70
1
43
0.0
10
-74.000001102685872
20
38.000000566244296
10
-74.000001102685914
20
-38.00000056624399
10
-136.00000202655789
20
-38.000000566244061
10
-136.00000202655787
20
38.000000566244225
0
CIRCLE
5
112
100
AcDbEntity
8
0
100
AcDbCircle
10
-120.00000111758708
20
-46.500000581145201
30
0
40
1.500000000000004
210
0
220
-0
230
1
0
CIRCLE
5
113
100
AcDbEntity
8
0
100
AcDbCircle
10
-90.000001117587033
20
46.500000581145436
30
0
40
1.500000000000004
210
0
220
-0
230
1
0
CIRCLE
5
114
100
AcDbEntity
8
0
100
AcDbCircle
10
-90.000001117587075
20
-46.500000581145173
30
0
40
1.500000000000004
210
0
220
-0
230
1
0
CIRCLE
5
115
100
AcDbEntity
8
0
100
AcDbCircle
10
-120.00000111758703
20
46.500000581145414
30
0
40
1.500000000000004
210
0
220
-0
230
1
0
CIRCLE
5
116
100
AcDbEntity
8
0
100
AcDbCircle
10
-181.77911124056561
20
34.006904477406962
30
0
40
1.5000000000000218
210
9.8607613152626476e-32
220
-4.4474804775934126e-47
230
1
0
CIRCLE
5
117
100
AcDbEntity
8
0
100
AcDbCircle
10
-181.77896523688753
20
-34.007184308750695
30
0
40
1.5000000000000218
210
9.8607613152626476e-32
220
-4.4474804775934126e-47
230
1
0
LWPOLYLINE
5
118
100
AcDbEntity
8
0
100
AcDbPolyline
90
24
70
1
43
0.0
10
-146.99999999999991
20
60.000000000000099
10
-146.99999999999994
20
15.00000000000008
10
-169.99999999999997
20
15.000000000000057
10
-169.99999999999997
20
18.20000000000006
10
-176.77905056276279
20
24.9790505627629
10
-176.77905056276279
20
34.006809889771084
42
0.99999999999999989
10
-186.77905056276279
20
34.006809889771063
10
-186.77905056276279
20
25.020949437237199
10
-203.49999999999997
20
25.020949437237189
10
-203.5
20
-25.020949437237153
10
-186.77905056276279
20
-25.020949437237139
10
-186.77905056276279
20
-34.007190110228962
42
0.99999999999999989
10
-176.77905056276279
20
-34.00719011022894
10
-176.77905056276279
20
-24.979050562762808
10
-169.99999999999997
20
-18.199999999999953
10
-169.99999999999997
20
-14.999999999999956
10
-146.99999999999994
20
-14.999999999999931
10
-146.99999999999997
20
-59.999999999999943
10
-20
20
-59.999999999999822
10
-19.999999999999975
20
-35.999999999999808
10
25.000000000000021
20
-35.999999999999758
10
25.000000000000053
20
36.000000000000284
10
-19.999999999999943
20
36.00000000000022
10
-19.999999999999932
20
60.000000000000227
0
LWPOLYLINE
5
119
100
AcDbEntity
8
0
100
AcDbPolyline
90
4
70
1
43
0.0
10
-199.00000296533105
20
5.0000000745058282
10
-194.00000289082524
20
5.0000000745058335
10
-194.00000289082524
20
-4.9999999254941692
10
-199.00000296533105
20
-4.9999999254941754
0
LWPOLYLINE
5
120
100
AcDbEntity
8
0
100
AcDbPolyline
90
4
70
1
43
0.0
10
6.2500000484288005
20
-30.500000223517198
10
0.25000004842880008
20
-30.500000223517205
10
0.25000004842880502
20
-18.500000223517198
10
6.2500000484288059
20
-18.500000223517191
0
CIRCLE
5
121
100
AcDbEntity
8
0
100
AcDbCircle
10
-24.500126263112236
20
-33.302330643436726
30
0
40
1.4999999999999996
210
1.9721522630525295e-31
220
-8.8949609551870741e-47
230
1
0
CIRCLE
5
122
100
AcDbEntity
8
0
100
AcDbCircle
10
-24.500126263117341
20
31.697669356562916
30
0
40
1.4999999999999996
210
1.9721522630525295e-31
220
-8.8949609551870741e-47
230
1
0
CIRCLE
5
123
100
AcDbEntity
8
0
100
AcDbCircle
10
-111.53381243611393
20
46.544494746664839
30
0
40
1.500000000000004
210
2.9582283945787943e-31
220
-1.3342441432780241e-46
230
1
0
CIRCLE
5
124
100
AcDbEntity
8
0
100
AcDbCircle
10
-98.533812436114005
20
46.544494746664896
30
0
40
1.500000000000004
210
2.9582283945787943e-31
220
-1.3342441432780241e-46
230
1
0
CIRCLE
5
125
100
AcDbEntity
8
0
100
AcDbCircle
10
-199.00000296533105
20
18.000000268220944
30
0
40
1.4999999999999862
210
-0
220
0
230
1
0
LWPOLYLINE
5
126
100
AcDbEntity
8
0
100
AcDbPolyline
90
4
70
1
43
0.0
10
-61.023899633104399
20
-38.269821472681002
10
-36.023899633104392
20
-38.269821472680938
42
-0.99999999999999989
10
-36.023899633104406
20
-48.26982147268096
10
-61.023899633104399
20
-48.269821472680988
42
-0.99999999999999989
0
ENDSEC
0
SECTION
2
OBJECTS
0
DICTIONARY
5
C
100
AcDbDictionary
3
ACAD_GROUP
350
D
3
ACAD_MLINESTYLE
350
17
0
DICTIONARY
5
D
100
AcDbDictionary
0
DICTIONARY
5
1A
330
C
100
AcDbDictionary
0
DICTIONARY
5
17
100
AcDbDictionary
0
ENDSEC
0
EOF
